HIERARCHY
ROOT Hips
{
  OFFSET -32.5998 29.0326 120.673
  CHANNELS 6 Xposition Yposition Zposition Zrotation Xrotation Yrotation
  JOINT LeftUpLeg
  {
    OFFSET 8.64259 1.95398 -2.38835
    CHANNELS 3 Zrotation Xrotation Yrotation
    JOINT LeftLeg
    {
      OFFSET 43.7702 0 0
      CHANNELS 3 Zrotation Xrotation Yrotation
      JOINT LeftFoot
      {
        OFFSET 40.6238 0 0
        CHANNELS 3 Zrotation Xrotation Yrotation
        JOINT LeftToeBase
        {
          OFFSET 12.7242 0 0
          CHANNELS 3 Zrotation Xrotation Yrotation
          End Site
          {
            OFFSET 0 0 0
          }
        }
      }
    }
  }
  JOINT RightUpLeg
  {
    OFFSET -8.2249 1.95398 -2.59336
    CHANNELS 3 Zrotation Xrotation Yrotation
    JOINT RightLeg
    {
      OFFSET 43.5653 0 0
      CHANNELS 3 Zrotation Xrotation Yrotation
      JOINT RightFoot
      {
        OFFSET 40.6238 0 0
        CHANNELS 3 Zrotation Xrotation Yrotation
        JOINT RightToeBase
        {
          OFFSET 12.7242 0 0
          CHANNELS 3 Zrotation Xrotation Yrotation
          End Site
          {
            OFFSET 0 0 0
          }
        }
      }
    }
  }
  JOINT Spine
  {
    OFFSET 0.165834 0.87714 6.61349
    CHANNELS 3 Zrotation Xrotation Yrotation
    JOINT Spine1
    {
      OFFSET 7.38963 1.71661e-005 0
      CHANNELS 3 Zrotation Xrotation Yrotation
      JOINT Spine2
      {
        OFFSET 11.9445 1.14441e-005 0
        CHANNELS 3 Zrotation Xrotation Yrotation
        JOINT Spine3
        {
          OFFSET 14.7254 4.19617e-005 0
          CHANNELS 3 Zrotation Xrotation Yrotation
          JOINT Spine4
          {
            OFFSET 10.9679 0 0
            CHANNELS 3 Zrotation Xrotation Yrotation
            JOINT RightShoulder
            {
              OFFSET 2.46616 -1.6653 3.69651
              CHANNELS 3 Zrotation Xrotation Yrotation
              JOINT RightArm
              {
                OFFSET 13.0012 0 0
                CHANNELS 3 Zrotation Xrotation Yrotation
                JOINT RightForeArm
                {
                  OFFSET 28.7848 1.62311e-005 0
                  CHANNELS 3 Zrotation Xrotation Yrotation
                  JOINT RightHand
                  {
                    OFFSET 26.5688 1.62095e-005 0
                    CHANNELS 3 Zrotation Xrotation Yrotation
                    End Site
                    {
                      OFFSET 0 0 0
                    }
                  }
                }
              }
            }
            JOINT LeftShoulder
            {
              OFFSET 2.38034 -1.29275 -3.7523
              CHANNELS 3 Zrotation Xrotation Yrotation
              JOINT LeftArm
              {
                OFFSET 16.3182 6.07031e-005 0
                CHANNELS 3 Zrotation Xrotation Yrotation
                JOINT LeftForeArm
                {
                  OFFSET 27.0901 0 0
                  CHANNELS 3 Zrotation Xrotation Yrotation
                  JOINT LeftHand
                  {
                    OFFSET 24.5451 1.51738e-005 0
                    CHANNELS 3 Zrotation Xrotation Yrotation
                    End Site
                    {
                      OFFSET 0 0 0
                    }
                  }
                }
              }
            }
            JOINT Neck
            {
              OFFSET 5.0226 -0.0266342 0
              CHANNELS 3 Zrotation Xrotation Yrotation
              JOINT Head
              {
                OFFSET 6.69364 2.86102e-005 0
                CHANNELS 3 Zrotation Xrotation Yrotation
                End Site
                {
                  OFFSET 0 0 0
                }
              }
            }
          }
        }
      }
    }
  }
}
MOTION
Frames:	14
Frame Time:	0.0416667
-28.2878 86.5747 67.1532 -85.7365 -43.5789 -94.8666 -172.377 44.7408 94.366 -111.821 9.52677 4.16857 76.1285 9.55639 10.0492 20.9179 -1.13616 -4.42157 174.532 4.70443 99.313 -48.6991 -14.7516 1.07235 96.0101 -27.7582 -5.95838 16.9826 2.3702 8.45571 1.64652 7.99787 -90.2603 10.8928 3.1579 -0.815607 -0.774686 3.11895 -0.953921 -23.3408 3.25687 0.17219 -3.32813 3.25687 0.172185 89.359 -22.9344 -111.194 38.4987 22.4892 -46.7518 -24.6002 10.8925 -126.153 -14.2928 -0.9538 2.62348 -86.0174 -48.1039 84.4209 -23.0706 13.6676 21.0708 62.1579 -38.8348 -103.435 4.03883 0.0437579 -1.97321 31.3492 -0.515739 7.90731 -13.2163 -3.51998 -2.94179 
-32.7765 87.4817 73.8265 -84.6166 -42.2928 -96.1686 -171.862 49.6872 91.301 -104.089 5.97782 3.67862 79.2834 10.5922 8.39638 23.7192 -0.208203 -4.12309 173.457 -2.50522 94.9342 -42.4665 -15.5962 -0.217374 93.0938 -25.3101 -4.95788 23.0998 -0.0390642 8.78505 2.16839 7.93354 -89.8008 11.014 4.40901 -0.0257187 -0.649433 4.40362 -0.220131 -23.241 4.21253 1.30296 -3.22833 4.21253 1.30296 90.3146 -20.5621 -110.252 43.4555 27.4721 -51.6674 -24.5621 10.1632 -129.798 -16.8206 -1.37193 4.33503 -85.3194 -47.1015 85.3527 -22.6107 13.3693 29.7294 60.3069 -40.362 -105.614 4.0538 -0.0894893 -4.35137 31.6654 -3.45113 6.46897 -13.9069 -5.70994 -3.0168 
-38.3154 89.2821 80.7558 -84.5187 -41.6084 -98.402 -171.182 50.7052 88.454 -92.2957 3.23496 2.55928 81.8644 11.2566 5.23743 18.8791 -2.01509 -4.21134 172.138 -10.0235 90.286 -34.6696 -20.05 -2.04097 82.7354 -18.5551 -7.70287 29.2914 -2.36675 9.20955 2.71279 7.93237 -89.2627 10.9952 5.74214 0.919775 -0.663195 5.77702 0.665312 -23.2832 5.19959 2.6073 -3.27055 5.1996 2.60729 91.7162 -18.154 -108.167 47.7784 30.9863 -52.7448 -24.3412 10.112 -133.445 -18.687 -1.90488 6.70203 -85.0796 -43.491 85.2025 -23.1506 11.6695 36.8701 58.1639 -40.5857 -107.71 4.34839 -0.0884072 -3.98977 31.1595 -7.06328 4.27335 -13.8914 -8.19938 -3.16515 
-44.3421 91.0879 87.8822 -85.1599 -41.8079 -101.061 -171.5 48.7378 86.0749 -78.9038 2.23885 0.962996 82.8709 11.216 1.73176 18.6057 -3.54624 -1.43681 170.868 -17.2063 86.5462 -26.9268 -21.5239 -3.9828 70.4409 -8.57308 -7.05609 32.0169 -3.85914 11.7577 3.09936 7.99544 -88.7913 10.8396 6.72926 1.77557 -0.81467 6.80085 1.4764 -23.4534 5.88387 3.72154 -3.44079 5.88386 3.72153 92.7001 -16.2035 -106.705 49.7647 33.9963 -50.4156 -20.9303 7.39691 -136.336 -20.2529 -1.86742 5.48793 -85.1787 -40.5735 84.5785 -24.2832 10.5609 43.1578 55.7242 -43.3214 -112.677 11.1655 -1.26615 -13.7954 31.5942 -10.0261 3.21339 -15.7086 -10.3568 -4.91357 
-50.3853 92.3725 95.0252 -84.8919 -43.0003 -102.929 -172.663 46.627 84.1211 -64.2925 6.41713 -0.89645 78.9599 10.0118 2.32032 23.2034 -2.30467 -0.0336203 169.802 -21.247 83.9784 -23.8176 -21.214 -5.58764 62.613 -1.53186 -3.20553 20.6572 0.766948 9.21146 3.32514 8.00954 -88.3078 10.7761 7.40165 2.68069 -0.875737 7.51239 2.35079 -23.5183 6.25359 4.78687 -3.50562 6.25359 4.78687 93.4834 -14.3098 -105.623 50.218 36.0535 -46.4744 -18.5159 5.58653 -138.093 -20.1314 -1.60612 4.07729 -85.1936 -36.338 83.8178 -25.3947 9.04192 46.7231 49.8432 -42.2418 -116.182 16.3029 -1.37841 -12.513 32.9053 -12.8452 1.93806 -18.7729 -12.2257 -6.21817 
-56.1553 93.0471 101.974 -84.3112 -44.2306 -103.702 -173.865 44.3677 82.9528 -49.9427 11.1051 -2.48263 75.1791 8.40074 0.90449 28.5191 -1.48452 3.33749 169.776 -23.6703 83.454 -25.7837 -19.7358 -6.66071 62.7223 -1.00627 -2.56572 12.7296 4.80792 6.52102 3.44971 7.98547 -87.9592 10.7926 7.81029 3.33483 -0.85819 7.94942 2.98619 -23.4977 6.44737 5.53297 -3.48504 6.44738 5.53297 93.9696 -13.0939 -104.924 47.9032 35.4573 -42.3577 -19.1831 7.16581 -138.57 -19.5106 -1.55174 4.05316 -85.574 -33.9554 82.673 -25.1538 8.20576 48.918 55.4372 -43.6218 -111.798 7.28834 -0.071753 -4.14777 32.5252 -14.838 0.819081 -19.4462 -13.5518 -6.78842 
-61.578 93.2595 108.665 -83.7056 -46.0969 -102.827 -174.983 42.3299 82.4692 -37.4491 15.8421 -3.44778 70.8773 6.21003 0.48082 31.3631 -0.233098 3.35933 170.309 -25.3183 84.9689 -29.8409 -18.2846 -5.77357 66.2604 -3.73561 -3.74769 15.9356 3.40495 6.74075 3.39899 7.92925 -87.933 10.9043 7.72252 3.3852 -0.747088 7.86393 3.04043 -23.3815 6.34863 5.55417 -3.36886 6.34862 5.55415 94.4562 -12.704 -103.788 44.2412 30.9086 -38.6377 -22.9172 12.0551 -137.089 -18.8103 -1.83576 6.15383 -86.4035 -36.5563 81.7158 -20.2308 8.37608 49.3324 52.0954 -43.9305 -115.171 7.20284 -0.109733 -4.58819 31.7097 -15.7251 0.728107 -18.3691 -14.4268 -6.83985 
-66.8314 92.9976 115.176 -83.1648 -48.0073 -100.565 -174.921 40.572 82.2864 -29.3302 19.3577 -4.36104 71.6127 7.19826 1.50993 30.2223 -1.07669 4.18727 172.841 -24.9376 89.3214 -37.1155 -15.4347 -4.53146 66.3967 -3.63006 -3.53922 16.3277 3.05376 7.25475 3.29827 7.77338 -88.1311 11.2364 7.4332 2.98879 -0.41585 7.55746 2.65725 -23.0509 6.19141 5.08944 -3.03828 6.19142 5.08944 93.9997 -13.7475 -104.522 39.9275 26.1394 -32.922 -24.2426 13.4161 -133.651 -17.9802 -1.56357 4.96476 -87.4225 -40.0524 80.6864 -16.6702 9.2737 46.959 49.2701 -42.6758 -116.836 7.84263 0.00269769 -3.41783 29.4398 -16.2742 0.104687 -16.0895 -15.0219 -5.47562 
-72.1263 92.5549 121.502 -85.0326 -49.6146 -100.134 -174.738 37.6293 82.161 -27.1701 16.5789 -4.55368 75.9777 9.60682 -0.34926 25.1551 -4.03078 5.54582 173.604 -23.7058 92.2971 -47.5998 -14.233 -2.91369 66.2148 -3.14361 -2.7759 16.8087 2.30149 8.82357 3.12338 7.75851 -88.3702 11.2865 6.97429 2.55326 -0.36754 7.07985 2.24254 -22.9972 5.88434 4.53591 -2.9846 5.88435 4.5359 92.8177 -16.0632 -106.478 36.4207 21.608 -26.3027 -26.2028 13.5687 -128.408 -19.3406 -2.04806 7.09553 -87.875 -42.8673 80.5332 -15.2667 10.5966 41.6236 48.6171 -41.239 -116.304 9.23314 0.0654952 -2.81931 27.3805 -16.4182 -1.26968 -15.3117 -14.8643 -4.14773 
-77.5998 91.844 127.899 -88.9446 -51.1297 -101.873 -174.855 32.8505 81.9701 -27.4367 12.7262 -4.1417 76.4289 9.48603 -1.11121 27.2772 -3.16118 5.89802 172.357 -22.1525 93.3245 -59.8174 -13.7816 -1.45084 66.5368 -2.95635 -2.11832 15.3035 2.66968 9.36589 2.81071 7.90325 -88.5868 11.0126 6.24997 2.21415 -0.644711 6.34133 1.936 -23.2574 5.29542 3.99363 -3.24472 5.29543 3.99364 91.6215 -18.6297 -108.159 34.7799 15.8177 -20.4627 -24.9475 10.7988 -120.563 -19.2746 -1.74699 5.35057 -88.7459 -45.498 79.691 -16.0249 11.9062 35.1181 52.3476 -40.7605 -112.545 7.78134 -0.0404396 -3.80635 24.9123 -15.6548 -2.77515 -14.2574 -13.7657 -3.58355 
-82.8696 91.5089 134.138 -92.8917 -52.5005 -104.566 -175.785 30.8177 82.275 -32.7156 13.824 -3.25019 69.2884 4.1128 -0.712958 22.1866 -3.41197 1.31384 169.09 -19.214 92.063 -71.6956 -11.411 -0.388783 66.4926 -3.31283 -3.75271 11.7251 3.24389 11.2951 2.37548 8.03369 -88.6892 10.7595 5.33471 2.11394 -0.901828 5.42254 1.87654 -23.4888 4.45277 3.62133 -3.47619 4.45278 3.62133 90.5643 -21.9897 -108.977 35.242 9.10788 -15.6726 -20.3312 7.7346 -110.575 -16.6505 -0.894051 1.09019 -89.8419 -48.0531 78.5432 -17.3084 15.2735 26.4336 54.1313 -39.0024 -108.504 4.27847 -0.0383687 -3.47616 21.6238 -14.6399 -5.2024 -12.3386 -12.2839 -2.40889 
-87.793 90.6195 140.147 -96.0831 -52.8039 -108.226 -175.786 28.6891 81.3673 -38.6551 14.5958 -2.63537 63.7105 0.420293 0.937974 20.2832 -1.93973 -4.03422 165.142 -14.0582 88.7742 -84.6479 -5.87134 -0.84202 67.7511 -4.26032 -4.53372 11.9714 3.79588 9.72094 1.88547 8.26581 -88.6102 10.2946 4.39173 2.38285 -1.37072 4.49232 2.18701 -23.9293 3.47285 3.59292 -3.91662 3.47287 3.59292 89.9397 -24.7336 -109.087 36.9563 4.85333 -11.7381 -20.1159 7.11067 -102.419 -15.6941 -0.70092 0.0153014 -90.8796 -50.5754 77.546 -14.7011 17.7049 13.1129 54.5982 -37.054 -106.368 4.0367 0.0200716 -2.39729 19.9523 -13.3116 -6.84973 -10.2364 -10.6709 -1.57476 
-92.2585 89.2302 145.73 -98.0146 -53.277 -111.636 -174.271 26.5792 79.6032 -47.2723 14.7815 -2.91923 73.168 7.13078 1.1579 21.7571 -3.54075 0.976725 162.393 -5.53465 85.7459 -97.5786 0.774495 -2.17606 69.1522 -4.9085 -5.11197 11.7276 4.05727 9.31005 1.33251 8.51721 -88.4257 9.78969 3.36918 2.85433 -1.87974 3.49148 2.70326 -24.4091 2.35623 3.73432 -4.39645 2.35623 3.73432 88.9962 -27.9257 -109.622 37.7683 5.41163 -6.09182 -19.587 6.3981 -100.096 -17.6056 -0.935139 0.942148 -91.8733 -53.213 76.6988 -9.34644 22.0183 -4.55735 60.7941 -36.9048 -100.471 -0.528201 -0.0581939 -2.37041 20.8222 -12.1988 -7.75047 -9.25042 -9.27656 -1.08613 
-96.5344 88.7761 150.776 -99.7688 -52.2362 -115.779 -173.07 20.5153 78.0065 -49.25 14.8575 -3.67219 81.5547 12.6358 -0.540338 18.006 -6.68491 3.90359 163.702 4.02151 83.4727 -108.374 1.67934 -3.65032 69.4495 -6.06247 -6.92468 9.87147 5.26696 8.20146 0.816295 8.8697 -88.0975 9.08168 2.47823 3.59378 -2.59158 2.6339 3.48135 -25.0935 1.28466 4.1715 -5.08081 1.28466 4.17148 88.4612 -28.6835 -110.366 40.2147 7.40682 0.810523 -21.4679 6.85441 -100.42 -13.8791 -0.91423 2.52809 -92.1713 -52.975 76.215 -2.55013 21.6598 -23.9713 64.2829 -36.7841 -97.4384 0.263088 0.00538052 -0.20295 23.7887 -10.9775 -8.63183 -9.39562 -7.57535 -0.420839 
